<?xml version="1.0" encoding="utf-8" standalone="no"?>
<!DOCTYPE svg PUBLIC "-//W3C//DTD SVG 1.1//EN"
  "http://www.w3.org/Graphics/SVG/1.1/DTD/svg11.dtd">
<svg xmlns:xlink="http://www.w3.org/1999/xlink" width="576pt" height="259.2pt" viewBox="0 0 576 259.2" xmlns="http://www.w3.org/2000/svg" version="1.1">
 <metadata>
  <rdf:RDF xmlns:dc="http://purl.org/dc/elements/1.1/" xmlns:cc="http://creativecommons.org/ns#" xmlns:rdf="http://www.w3.org/1999/02/22-rdf-syntax-ns#">
   <cc:Work>
    <dc:type rdf:resource="http://purl.org/dc/dcmitype/StillImage"/>
    <dc:format>image/svg+xml</dc:format>
    <dc:creator>
     <cc:Agent>
      <dc:title>Matplotlib v3.9.2, https://matplotlib.org/</dc:title>
     </cc:Agent>
    </dc:creator>
   </cc:Work>
  </rdf:RDF>
 </metadata>
 <defs>
  <style type="text/css">*{stroke-linejoin: round; stroke-linecap: butt}</style>
 </defs>
 <g id="figure_1">
  <g id="patch_1">
   <path d="M 0 259.2 
L 576 259.2 
L 576 0 
L 0 0 
L 0 259.2 
z
" style="fill: none"/>
  </g>
  <g id="axes_1">
   <g id="patch_2">
    <path d="M 55.16 212.22 
L 566.28 212.22 
L 566.28 27.864 
L 55.16 27.864 
L 55.16 212.22 
z
" style="fill: none"/>
   </g>
   <g id="matplotlib.axis_1">
    <g id="xtick_1">
     <g id="line2d_1">
      <path d="M 55.16 212.22 
L 55.16 27.864 
" clip-path="url(#pf8605ae96b)" style="fill: none; stroke: #e1e0d9; stroke-width: 0.6; stroke-linecap: round"/>
     </g>
     <g id="text_1">
      <text style="fill: #52514e; font: 11px 'Arial', 'DejaVu Sans', 'Liberation Sans', 'Bitstream Vera Sans', sans-serif; text-anchor: middle" x="55.16" y="230.078281" transform="rotate(-0 55.16 230.078281)">0</text>
     </g>
    </g>
    <g id="xtick_2">
     <g id="line2d_2">
      <path d="M 151.065304 212.22 
L 151.065304 27.864 
" clip-path="url(#pf8605ae96b)" style="fill: none; stroke: #e1e0d9; stroke-width: 0.6; stroke-linecap: round"/>
     </g>
     <g id="text_2">
      <text style="fill: #52514e; font: 11px 'Arial', 'DejaVu Sans', 'Liberation Sans', 'Bitstream Vera Sans', sans-serif; text-anchor: middle" x="151.065304" y="230.078281" transform="rotate(-0 151.065304 230.078281)">5</text>
     </g>
    </g>
    <g id="xtick_3">
     <g id="line2d_3">
      <path d="M 246.970609 212.22 
L 246.970609 27.864 
" clip-path="url(#pf8605ae96b)" style="fill: none; stroke: #e1e0d9; stroke-width: 0.6; stroke-linecap: round"/>
     </g>
     <g id="text_3">
      <text style="fill: #52514e; font: 11px 'Arial', 'DejaVu Sans', 'Liberation Sans', 'Bitstream Vera Sans', sans-serif; text-anchor: middle" x="246.970609" y="230.078281" transform="rotate(-0 246.970609 230.078281)">10</text>
     </g>
    </g>
    <g id="xtick_4">
     <g id="line2d_4">
      <path d="M 342.875913 212.22 
L 342.875913 27.864 
" clip-path="url(#pf8605ae96b)" style="fill: none; stroke: #e1e0d9; stroke-width: 0.6; stroke-linecap: round"/>
     </g>
     <g id="text_4">
      <text style="fill: #52514e; font: 11px 'Arial', 'DejaVu Sans', 'Liberation Sans', 'Bitstream Vera Sans', sans-serif; text-anchor: middle" x="342.875913" y="230.078281" transform="rotate(-0 342.875913 230.078281)">15</text>
     </g>
    </g>
    <g id="xtick_5">
     <g id="line2d_5">
      <path d="M 438.781217 212.22 
L 438.781217 27.864 
" clip-path="url(#pf8605ae96b)" style="fill: none; stroke: #e1e0d9; stroke-width: 0.6; stroke-linecap: round"/>
     </g>
     <g id="text_5">
      <text style="fill: #52514e; font: 11px 'Arial', 'DejaVu Sans', 'Liberation Sans', 'Bitstream Vera Sans', sans-serif; text-anchor: middle" x="438.781217" y="230.078281" transform="rotate(-0 438.781217 230.078281)">20</text>
     </g>
    </g>
    <g id="xtick_6">
     <g id="line2d_6">
      <path d="M 534.686521 212.22 
L 534.686521 27.864 
" clip-path="url(#pf8605ae96b)" style="fill: none; stroke: #e1e0d9; stroke-width: 0.6; stroke-linecap: round"/>
     </g>
     <g id="text_6">
      <text style="fill: #52514e; font: 11px 'Arial', 'DejaVu Sans', 'Liberation Sans', 'Bitstream Vera Sans', sans-serif; text-anchor: middle" x="534.686521" y="230.078281" transform="rotate(-0 534.686521 230.078281)">25</text>
     </g>
    </g>
    <g id="text_7">
     <text style="fill: #52514e; font: 12px 'Arial', 'DejaVu Sans', 'Liberation Sans', 'Bitstream Vera Sans', sans-serif; text-anchor: middle" x="310.72" y="245.484062" transform="rotate(-0 310.72 245.484062)">minutos até verde</text>
    </g>
   </g>
   <g id="matplotlib.axis_2">
    <g id="ytick_1">
     <g id="text_8">
      <text style="fill: #52514e; font: 11px 'Arial', 'DejaVu Sans', 'Liberation Sans', 'Bitstream Vera Sans', sans-serif; text-anchor: end" x="51.66" y="49.884044" transform="rotate(-0 51.66 49.884044)">kata-01</text>
     </g>
    </g>
    <g id="ytick_2">
     <g id="text_9">
      <text style="fill: #52514e; font: 11px 'Arial', 'DejaVu Sans', 'Liberation Sans', 'Bitstream Vera Sans', sans-serif; text-anchor: end" x="51.66" y="79.618883" transform="rotate(-0 51.66 79.618883)">kata-02</text>
     </g>
    </g>
    <g id="ytick_3">
     <g id="text_10">
      <text style="fill: #52514e; font: 11px 'Arial', 'DejaVu Sans', 'Liberation Sans', 'Bitstream Vera Sans', sans-serif; text-anchor: end" x="51.66" y="109.353721" transform="rotate(-0 51.66 109.353721)">kata-03</text>
     </g>
    </g>
    <g id="ytick_4">
     <g id="text_11">
      <text style="fill: #52514e; font: 11px 'Arial', 'DejaVu Sans', 'Liberation Sans', 'Bitstream Vera Sans', sans-serif; text-anchor: end" x="51.66" y="139.08856" transform="rotate(-0 51.66 139.08856)">kata-04</text>
     </g>
    </g>
    <g id="ytick_5">
     <g id="text_12">
      <text style="fill: #52514e; font: 11px 'Arial', 'DejaVu Sans', 'Liberation Sans', 'Bitstream Vera Sans', sans-serif; text-anchor: end" x="51.66" y="168.823399" transform="rotate(-0 51.66 168.823399)">kata-05</text>
     </g>
    </g>
    <g id="ytick_6">
     <g id="text_13">
      <text style="fill: #52514e; font: 11px 'Arial', 'DejaVu Sans', 'Liberation Sans', 'Bitstream Vera Sans', sans-serif; text-anchor: end" x="51.66" y="198.558237" transform="rotate(-0 51.66 198.558237)">kata-06</text>
     </g>
    </g>
   </g>
   <g id="line2d_7">
    <path d="M 85.871499 45.704903 
L 123.278885 45.704903 
" clip-path="url(#pf8605ae96b)" style="fill: none; stroke: #c3c2b7; stroke-width: 3; stroke-linecap: round"/>
   </g>
   <g id="line2d_8">
    <path d="M 329.539473 75.439742 
L 69.00348 75.439742 
" clip-path="url(#pf8605ae96b)" style="fill: none; stroke: #c3c2b7; stroke-width: 3; stroke-linecap: round"/>
   </g>
   <g id="line2d_9">
    <path d="M 131.471022 105.174581 
L 105.00333 105.174581 
" clip-path="url(#pf8605ae96b)" style="fill: none; stroke: #c3c2b7; stroke-width: 3; stroke-linecap: round"/>
   </g>
   <g id="line2d_10">
    <path d="M 429.838777 134.909419 
L 113.712947 134.909419 
" clip-path="url(#pf8605ae96b)" style="fill: none; stroke: #c3c2b7; stroke-width: 3; stroke-linecap: round"/>
   </g>
   <g id="line2d_11">
    <path d="M 231.142179 164.644258 
L 156.28904 164.644258 
" clip-path="url(#pf8605ae96b)" style="fill: none; stroke: #c3c2b7; stroke-width: 3; stroke-linecap: round"/>
   </g>
   <g id="line2d_12">
    <path d="M 451.98294 194.379097 
L 131.332265 194.379097 
" clip-path="url(#pf8605ae96b)" style="fill: none; stroke: #c3c2b7; stroke-width: 3; stroke-linecap: round"/>
   </g>
   <g id="line2d_13">
    <path d="M 85.871499 52.246568 
L 85.871499 39.163239 
" clip-path="url(#pf8605ae96b)" style="fill: none; stroke: #eb6834; stroke-width: 2; stroke-linecap: round"/>
   </g>
   <g id="line2d_14">
    <path d="M 123.278885 52.246568 
L 123.278885 39.163239 
" clip-path="url(#pf8605ae96b)" style="fill: none; stroke: #2a78d6; stroke-width: 2; stroke-linecap: round"/>
   </g>
   <g id="line2d_15">
    <path d="M 329.539473 81.981406 
L 329.539473 68.898077 
" clip-path="url(#pf8605ae96b)" style="fill: none; stroke: #eb6834; stroke-width: 2; stroke-linecap: round"/>
   </g>
   <g id="line2d_16">
    <path d="M 69.00348 81.981406 
L 69.00348 68.898077 
" clip-path="url(#pf8605ae96b)" style="fill: none; stroke: #2a78d6; stroke-width: 2; stroke-linecap: round"/>
   </g>
   <g id="line2d_17">
    <path d="M 131.471022 111.716245 
L 131.471022 98.632916 
" clip-path="url(#pf8605ae96b)" style="fill: none; stroke: #eb6834; stroke-width: 2; stroke-linecap: round"/>
   </g>
   <g id="line2d_18">
    <path d="M 105.00333 111.716245 
L 105.00333 98.632916 
" clip-path="url(#pf8605ae96b)" style="fill: none; stroke: #2a78d6; stroke-width: 2; stroke-linecap: round"/>
   </g>
   <g id="line2d_19">
    <path d="M 429.838777 141.451084 
L 429.838777 128.367755 
" clip-path="url(#pf8605ae96b)" style="fill: none; stroke: #eb6834; stroke-width: 2; stroke-linecap: round"/>
   </g>
   <g id="line2d_20">
    <path d="M 113.712947 141.451084 
L 113.712947 128.367755 
" clip-path="url(#pf8605ae96b)" style="fill: none; stroke: #2a78d6; stroke-width: 2; stroke-linecap: round"/>
   </g>
   <g id="line2d_21">
    <path d="M 231.142179 171.185923 
L 231.142179 158.102594 
" clip-path="url(#pf8605ae96b)" style="fill: none; stroke: #eb6834; stroke-width: 2; stroke-linecap: round"/>
   </g>
   <g id="line2d_22">
    <path d="M 156.28904 171.185923 
L 156.28904 158.102594 
" clip-path="url(#pf8605ae96b)" style="fill: none; stroke: #2a78d6; stroke-width: 2; stroke-linecap: round"/>
   </g>
   <g id="line2d_23">
    <path d="M 451.98294 200.920761 
L 451.98294 187.837432 
" clip-path="url(#pf8605ae96b)" style="fill: none; stroke: #eb6834; stroke-width: 2; stroke-linecap: round"/>
   </g>
   <g id="line2d_24">
    <path d="M 131.332265 200.920761 
L 131.332265 187.837432 
" clip-path="url(#pf8605ae96b)" style="fill: none; stroke: #2a78d6; stroke-width: 2; stroke-linecap: round"/>
   </g>
   <g id="patch_3">
    <path d="M 55.16 212.22 
L 566.28 212.22 
" style="fill: none; stroke: #c3c2b7; stroke-width: 0.8; stroke-linejoin: miter; stroke-linecap: square"/>
   </g>
   <g id="kata-A_kata-01_semia">
    <defs>
     <path id="m74861bcae5" d="M 0 3.391165 
C 0.899347 3.391165 1.761981 3.03385 2.397916 2.397916 
C 3.03385 1.761981 3.391165 0.899347 3.391165 0 
C 3.391165 -0.899347 3.03385 -1.761981 2.397916 -2.397916 
C 1.761981 -3.03385 0.899347 -3.391165 0 -3.391165 
C -0.899347 -3.391165 -1.761981 -3.03385 -2.397916 -2.397916 
C -3.03385 -1.761981 -3.391165 -0.899347 -3.391165 0 
C -3.391165 0.899347 -3.03385 1.761981 -2.397916 2.397916 
C -1.761981 3.03385 -0.899347 3.391165 0 3.391165 
z
" style="stroke: #fcfcfb; stroke-width: 1.2"/>
    </defs>
    <g clip-path="url(#pf8605ae96b)">
     <use xlink:href="#m74861bcae5" x="85.871499" y="45.704903" style="fill: #eb6834; stroke: #fcfcfb; stroke-width: 1.2"/>
    </g>
   </g>
   <g id="kata-joaquim_vilela_kata-01_com-ia_20260918T003546014662Z">
    <defs>
     <path id="m60f7a953e0" d="M 0 3.391165 
C 0.899347 3.391165 1.761981 3.03385 2.397916 2.397916 
C 3.03385 1.761981 3.391165 0.899347 3.391165 0 
C 3.391165 -0.899347 3.03385 -1.761981 2.397916 -2.397916 
C 1.761981 -3.03385 0.899347 -3.391165 0 -3.391165 
C -0.899347 -3.391165 -1.761981 -3.03385 -2.397916 -2.397916 
C -3.03385 -1.761981 -3.391165 -0.899347 -3.391165 0 
C -3.391165 0.899347 -3.03385 1.761981 -2.397916 2.397916 
C -1.761981 3.03385 -0.899347 3.391165 0 3.391165 
z
" style="stroke: #fcfcfb; stroke-width: 1.2"/>
    </defs>
    <g clip-path="url(#pf8605ae96b)">
     <use xlink:href="#m60f7a953e0" x="159.551613" y="45.704903" style="fill: #2a78d6; stroke: #fcfcfb; stroke-width: 1.2"/>
    </g>
   </g>
   <g id="kata-vitor_kata-01_com-ia_20260918T002448475437Z">
    <g clip-path="url(#pf8605ae96b)">
     <use xlink:href="#m60f7a953e0" x="87.006156" y="45.704903" style="fill: #2a78d6; stroke: #fcfcfb; stroke-width: 1.2"/>
    </g>
   </g>
   <g id="kata-joaquim_vilela_kata-02_sem-ia_20260924T222719702498Z">
    <g clip-path="url(#pf8605ae96b)">
     <use xlink:href="#m74861bcae5" x="374.54106" y="75.439742" style="fill: #eb6834; stroke: #fcfcfb; stroke-width: 1.2"/>
    </g>
   </g>
   <g id="kata-vitor_kata-02_sem-ia_20260924T000843697771Z">
    <g clip-path="url(#pf8605ae96b)">
     <use xlink:href="#m74861bcae5" x="284.537885" y="75.439742" style="fill: #eb6834; stroke: #fcfcfb; stroke-width: 1.2"/>
    </g>
   </g>
   <g id="kata-A_kata-02_comia">
    <g clip-path="url(#pf8605ae96b)">
     <use xlink:href="#m60f7a953e0" x="69.00348" y="75.439742" style="fill: #2a78d6; stroke: #fcfcfb; stroke-width: 1.2"/>
    </g>
   </g>
   <g id="kata-A_kata-03_semia">
    <g clip-path="url(#pf8605ae96b)">
     <use xlink:href="#m74861bcae5" x="131.471022" y="105.174581" style="fill: #eb6834; stroke: #fcfcfb; stroke-width: 1.2"/>
    </g>
   </g>
   <g id="kata-joaquim_vilela_kata-03_com-ia_20260918T010625012442Z">
    <g clip-path="url(#pf8605ae96b)">
     <use xlink:href="#m60f7a953e0" x="148.082812" y="105.174581" style="fill: #2a78d6; stroke: #fcfcfb; stroke-width: 1.2"/>
    </g>
   </g>
   <g id="kata-vitor_kata-03_com-ia_20260918T003149985965Z">
    <g clip-path="url(#pf8605ae96b)">
     <use xlink:href="#m60f7a953e0" x="61.923849" y="105.174581" style="fill: #2a78d6; stroke: #fcfcfb; stroke-width: 1.2"/>
    </g>
   </g>
   <g id="kata-joaquim_vilela_kata-04_sem-ia_20260924T224514601804Z">
    <g clip-path="url(#pf8605ae96b)">
     <use xlink:href="#m74861bcae5" x="317.414514" y="134.909419" style="fill: #eb6834; stroke: #fcfcfb; stroke-width: 1.2"/>
    </g>
   </g>
   <g id="kata-vitor_kata-04_sem-ia_20260924T002813093564Z">
    <g clip-path="url(#pf8605ae96b)">
     <use xlink:href="#m74861bcae5" x="542.26304" y="134.909419" style="fill: #eb6834; stroke: #fcfcfb; stroke-width: 1.2"/>
    </g>
   </g>
   <g id="kata-A_kata-04_comia">
    <g clip-path="url(#pf8605ae96b)">
     <use xlink:href="#m60f7a953e0" x="113.712947" y="134.909419" style="fill: #2a78d6; stroke: #fcfcfb; stroke-width: 1.2"/>
    </g>
   </g>
   <g id="kata-A_kata-05_semia">
    <g clip-path="url(#pf8605ae96b)">
     <use xlink:href="#m74861bcae5" x="231.142179" y="164.644258" style="fill: #eb6834; stroke: #fcfcfb; stroke-width: 1.2"/>
    </g>
   </g>
   <g id="kata-joaquim_vilela_kata-05_com-ia_20260918T020805552406Z">
    <g clip-path="url(#pf8605ae96b)">
     <use xlink:href="#m60f7a953e0" x="126.101635" y="164.644258" style="fill: #2a78d6; stroke: #fcfcfb; stroke-width: 1.2"/>
    </g>
   </g>
   <g id="kata-vitor_kata-05_com-ia_20260918T004340442738Z">
    <g clip-path="url(#pf8605ae96b)">
     <use xlink:href="#m60f7a953e0" x="186.476445" y="164.644258" style="fill: #2a78d6; stroke: #fcfcfb; stroke-width: 1.2"/>
    </g>
   </g>
   <g id="kata-joaquim_vilela_kata-06_sem-ia_20260924T230216201071Z">
    <g clip-path="url(#pf8605ae96b)">
     <use xlink:href="#m74861bcae5" x="476.79916" y="194.379097" style="fill: #eb6834; stroke: #fcfcfb; stroke-width: 1.2"/>
    </g>
   </g>
   <g id="kata-vitor_kata-06_sem-ia_20260924T004538662549Z">
    <g clip-path="url(#pf8605ae96b)">
     <use xlink:href="#m74861bcae5" x="427.16672" y="194.379097" style="fill: #eb6834; stroke: #fcfcfb; stroke-width: 1.2"/>
    </g>
   </g>
   <g id="kata-A_kata-06_comia">
    <g clip-path="url(#pf8605ae96b)">
     <use xlink:href="#m60f7a953e0" x="131.332265" y="194.379097" style="fill: #2a78d6; stroke: #fcfcfb; stroke-width: 1.2"/>
    </g>
   </g>
  </g>
  <g id="legend_1">
   <g id="line2d_25">
    <defs>
     <path id="mea39fb6861" d="M 0 3.5 
C 0.928211 3.5 1.81853 3.131218 2.474874 2.474874 
C 3.131218 1.81853 3.5 0.928211 3.5 0 
C 3.5 -0.928211 3.131218 -1.81853 2.474874 -2.474874 
C 1.81853 -3.131218 0.928211 -3.5 0 -3.5 
C -0.928211 -3.5 -1.81853 -3.131218 -2.474874 -2.474874 
C -3.131218 -1.81853 -3.5 -0.928211 -3.5 0 
C -3.5 0.928211 -3.131218 1.81853 -2.474874 2.474874 
C -1.81853 3.131218 -0.928211 3.5 0 3.5 
z
" style="stroke: #eb6834"/>
    </defs>
    <g>
     <use xlink:href="#mea39fb6861" x="26.66" y="14.408281" style="fill: #eb6834; stroke: #eb6834"/>
    </g>
   </g>
   <g id="text_14">
    <text style="fill: #52514e; font: 11px 'Arial', 'DejaVu Sans', 'Liberation Sans', 'Bitstream Vera Sans', sans-serif; text-anchor: start" x="40.96" y="18.258281" transform="rotate(-0 40.96 18.258281)">Sem IA</text>
   </g>
   <g id="line2d_26">
    <defs>
     <path id="mee0c3eb87c" d="M 0 3.5 
C 0.928211 3.5 1.81853 3.131218 2.474874 2.474874 
C 3.131218 1.81853 3.5 0.928211 3.5 0 
C 3.5 -0.928211 3.131218 -1.81853 2.474874 -2.474874 
C 1.81853 -3.131218 0.928211 -3.5 0 -3.5 
C -0.928211 -3.5 -1.81853 -3.131218 -2.474874 -2.474874 
C -3.131218 -1.81853 -3.5 -0.928211 -3.5 0 
C -3.5 0.928211 -3.131218 1.81853 -2.474874 2.474874 
C -1.81853 3.131218 -0.928211 3.5 0 3.5 
z
" style="stroke: #2a78d6"/>
    </defs>
    <g>
     <use xlink:href="#mee0c3eb87c" x="103.892031" y="14.408281" style="fill: #2a78d6; stroke: #2a78d6"/>
    </g>
   </g>
   <g id="text_15">
    <text style="fill: #52514e; font: 11px 'Arial', 'DejaVu Sans', 'Liberation Sans', 'Bitstream Vera Sans', sans-serif; text-anchor: start" x="118.192031" y="18.258281" transform="rotate(-0 118.192031 18.258281)">Com IA</text>
   </g>
  </g>
 </g>
 <defs>
  <clipPath id="pf8605ae96b">
   <rect x="55.16" y="27.864" width="511.12" height="184.356"/>
  </clipPath>
 </defs>
</svg>
